<svg xmlns="http://www.w3.org/2000/svg" viewBox="0 0 400 80"><title>紀南Good</title><path d="M67.90779,79.32584H33.50848v-39.23l30.27139.01344V11.21521H35.57244V5.71132H69.28376V40.78274a4.831,4.831,0,0,1-4.83312,4.831l-25.43827-.01129V73.822H67.90779Z"/><polygon points="23.189 63.33 1.83 63.33 10.229 41.187 1.204 30.773 14.367 1.912 19.375 4.195 7.678 29.841 16.541 40.066 9.804 57.826 23.189 57.826 23.189 63.33"/><rect x="11.30916" y="59.86873" width="4.79443" height="19.28511"/><circle cx="4.09707" cy="71.92999" r="3.43993"/><circle cx="23.01669" cy="71.92999" r="3.43993"/><circle cx="109.87495" cy="42.34659" r="3.43993"/><circle cx="128.79457" cy="42.00259" r="3.43993"/><path d="M92.5033,79.15385H86.99941V28.36635a3.9074,3.9074,0,0,1,3.9074-3.9074h56.8559a3.9074,3.9074,0,0,1,3.9074,3.9074v50.7875h-5.50389v-49.191H92.5033Z"/><rect x="89.06337" y="5.53933" width="60.54278" height="5.50389"/><rect x="116.58281" y="1.06742" width="5.50389" height="26.36082"/><rect x="105.91903" y="50.25843" width="26.83146" height="5.50389"/><rect x="105.91903" y="61.26621" width="26.83146" height="5.50389"/><rect x="116.58281" y="51.6344" width="5.50389" height="26.83146"/><path d="M271.3797,79.15385a25.45549,25.45549,0,1,1,25.45549-25.45549A25.48412,25.48412,0,0,1,271.3797,79.15385Zm0-45.40709a19.9516,19.9516,0,1,0,19.9516,19.9516A19.97435,19.97435,0,0,0,271.3797,33.74676Z"/><path d="M322.29068,79.15385a25.45549,25.45549,0,1,1,25.45549-25.45549A25.48412,25.48412,0,0,1,322.29068,79.15385Zm0-45.40709a19.9516,19.9516,0,1,0,19.9516,19.9516A19.97435,19.97435,0,0,0,322.29068,33.74676Z"/><path d="M373.20165,79.15385a25.45549,25.45549,0,1,1,25.45549-25.45549A25.48411,25.48411,0,0,1,373.20165,79.15385Zm0-45.40709a19.9516,19.9516,0,1,0,19.9516,19.9516A19.97434,19.97434,0,0,0,373.20165,33.74676Z"/><rect x="393.15325" y="1.06742" width="5.50389" height="77.74244"/><path d="M210.83557,79.15385c-.05643,0-.11085,0-.16729-.00034a36.46329,36.46329,0,0,1,.16595-72.9262c.05778,0,.11355,0,.17133.00034L210.98,11.73154c-.0477-.00034-.09742-.00034-.14512-.00034a30.95938,30.95938,0,0,0-.14109,61.91842c.047.00034.09541.00034.14244.00034a31.12959,31.12959,0,0,0,29.32339-21.00239H210.83692V47.14368H247.192l-.727,3.33747A36.628,36.628,0,0,1,210.83557,79.15385Z"/></svg>
