<svg xmlns="http://www.w3.org/2000/svg" viewBox="0 0 200 166"><title>アートボード 1</title><path d="M182.19106,75.85631l-.92766-2.41209c6.72669-1.48444,13.40619-7.05131,13.40619-17.48862a13.96641,13.96641,0,0,0-14.42632-14.05592c-10.20516,0-16.60721,8.34985-16.60721,17.62782,0,5.61312,2.1337,9.69509,5.33473,9.69509,3.01511,0,6.77292-3.85029,7.37594-12.571l.46336-6.95836a2.36057,2.36057,0,0,1-1.391-2.18042,2.44218,2.44218,0,0,1,2.69048-2.2729c1.4382,0,2.50458.74222,2.4121,2.31914l-.603,9.32421c-.64926,9.83429-4.7317,15.02982-10.94784,15.02982-5.14882,0-8.99911-4.96338-8.99911-12.20014,0-12.06093,8.8132-20.50373,20.59622-20.50373,11.73678,0,18.09164,8.62823,18.09164,16.65344A19.84964,19.84964,0,0,1,182.19106,75.85631Z"/><path d="M66.6255,75.458H33.62471V37.82291l29.0407.01289V10.11642H35.60475V4.8363H67.94553V38.48187a4.63457,4.63457,0,0,1-4.63663,4.63458l-24.40407-.01083V70.17787H66.6255Z"/><polygon points="23.724 60.113 3.234 60.113 11.292 38.87 2.633 28.879 15.262 1.191 20.066 3.382 8.845 27.985 17.347 37.794 10.884 54.833 23.724 54.833 23.724 60.113"/><rect x="12.3279" y="56.79192" width="4.59951" height="18.50107"/><circle cx="5.40902" cy="68.36283" r="3.30008"/><circle cx="23.55946" cy="68.36283" r="3.30008"/><circle cx="106.88648" cy="39.98214" r="3.30008"/><circle cx="125.03691" cy="39.65214" r="3.30008"/><path d="M90.22107,75.293H84.941V26.57027a3.74854,3.74854,0,0,1,3.74854-3.74854H143.2339a3.74854,3.74854,0,0,1,3.74854,3.74854V75.293h-5.28012V28.10186H90.22107Z"/><rect x="86.92099" y="4.67129" width="58.0814" height="5.28013"/><rect x="113.32163" y="0.38119" width="5.28013" height="25.28912"/><rect x="103.09138" y="47.57233" width="25.74062" height="5.28013"/><rect x="103.09138" y="58.13258" width="25.74062" height="5.28013"/><rect x="113.32163" y="48.89236" width="5.28013" height="25.74062"/><rect x="2.77762" y="103.73617" width="33.57095" height="5.08527"/><rect x="122.85718" y="131.29712" width="33.57095" height="5.08527"/><rect x="3.35265" y="125.50418" width="32.99592" height="5.08527"/><rect x="-1.01266" y="142.18116" width="37.85651" height="5.08541" transform="translate(-118.07112 92.05906) rotate(-61.77282)"/><polygon points="50.503 161.863 50.503 103.47 55.588 103.47 55.588 151.81 75.92 136.858 78.933 140.954 50.503 161.863"/><polygon points="100.626 162.455 95.999 160.347 115.155 118.295 115.155 108.821 85.402 108.821 85.402 116.109 80.317 116.109 80.317 103.736 120.24 103.736 120.24 119.399 100.626 162.455"/><polygon points="169.884 163 165.931 159.802 190.643 129.254 190.643 108.821 175.063 108.821 163.556 125.331 159.384 122.423 172.408 103.736 195.729 103.736 195.729 131.053 169.884 163"/></svg>