<svg xmlns="http://www.w3.org/2000/svg" viewBox="0 0 148.22 29.49" width="148.22px" height="29.49px"><defs><style>.cls-1{fill:#4c4948;}</style></defs><title>アセット 3</title><g id="レイヤー_2" data-name="レイヤー 2"><g id="レイヤー_1-2" data-name="レイヤー 1"><path class="cls-1" d="M0,3.32a2.5,2.5,0,0,0,2.5,2.5H6.36a2.5,2.5,0,0,1,2.5,2.5V27a2.51,2.51,0,0,0,2.5,2.5h.13A2.51,2.51,0,0,0,14,27V8.32a2.51,2.51,0,0,1,2.5-2.5h3.86a2.51,2.51,0,0,0,2.5-2.5v-.2a2.5,2.5,0,0,0-2.5-2.5H2.5A2.5,2.5,0,0,0,0,3.13Z"/><path class="cls-1" d="M31.51,26.4a2.51,2.51,0,0,0,2.5,2.5H50.6a2.51,2.51,0,0,0,2.5-2.5v-.16a2.51,2.51,0,0,0-2.5-2.5H39.17a2.5,2.5,0,0,1-2.5-2.5v-2a2.5,2.5,0,0,1,2.5-2.5H50.6a2.51,2.51,0,0,0,2.5-2.5v-.17a2.51,2.51,0,0,0-2.5-2.5H39.17a2.5,2.5,0,0,1-2.5-2.5V8.32a2.51,2.51,0,0,1,2.5-2.5H50.6a2.51,2.51,0,0,0,2.5-2.5V3.16A2.51,2.51,0,0,0,50.6.66H34a2.5,2.5,0,0,0-2.5,2.5Z"/><path class="cls-1" d="M60.66,3.32a2.51,2.51,0,0,0,2.5,2.5H67a2.51,2.51,0,0,1,2.5,2.5V27a2.51,2.51,0,0,0,2.5,2.5h.13a2.51,2.51,0,0,0,2.5-2.5V8.32a2.5,2.5,0,0,1,2.5-2.5H81a2.5,2.5,0,0,0,2.5-2.5v-.2A2.5,2.5,0,0,0,81,.63H63.15a2.51,2.51,0,0,0-2.5,2.5Z"/><path class="cls-1" d="M103,0a11.11,11.11,0,0,0-8.82,4,16.17,16.17,0,0,0-2.9,6.72,36.09,36.09,0,0,0-.42,5V27a2.51,2.51,0,0,0,2.5,2.5h.17a2.51,2.51,0,0,0,2.5-2.5V22.74a2.5,2.5,0,0,1,2.5-2.5h8.92a2.5,2.5,0,0,1,2.5,2.5V27a2.51,2.51,0,0,0,2.5,2.5h.16a2.51,2.51,0,0,0,2.5-2.5V13.19A13.68,13.68,0,0,0,111.79,4,11.11,11.11,0,0,0,103,0m-5,7.43a6.56,6.56,0,0,1,9.87,0,7.4,7.4,0,0,1,1.63,3.29,31.94,31.94,0,0,1,.39,3.4c0,.51-1.12.93-2.5.93H98.57c-1.37,0-2.5-.84-2.5-1.86h0a8.52,8.52,0,0,1,2-5.76"/><path class="cls-1" d="M145.53,0A2.51,2.51,0,0,0,143,2.5V16.4a7.83,7.83,0,0,1-2.27,5.66,7.23,7.23,0,0,1-10.64,0,7,7,0,0,1-1.81-3.21,33.45,33.45,0,0,1-.45-5V2.5a2.51,2.51,0,0,0-2.5-2.5h-.16a2.51,2.51,0,0,0-2.5,2.5V16.4a12.9,12.9,0,0,0,3.69,9.19,12.44,12.44,0,0,0,18.08,0,15.15,15.15,0,0,0,3.29-6.75,32.14,32.14,0,0,0,.47-5V2.5a2.51,2.51,0,0,0-2.5-2.5Z"/></g></g></svg>
